<svg width="20" height="20" viewBox="0 0 20 20" fill="none" xmlns="http://www.w3.org/2000/svg">
<g clip-path="url(#clip0_447_3531)">
<path d="M15.3033 14.4747L10.8286 10L15.3033 5.52534C15.5321 5.29651 15.5321 4.92553 15.3033 4.6967C15.0745 4.46787 14.7035 4.46787 14.4747 4.6967L10 9.17136L5.52534 4.6967C5.29651 4.46787 4.92553 4.46787 4.6967 4.6967C4.46787 4.92553 4.46787 5.29651 4.6967 5.52534L9.17136 10L4.6967 14.4747C4.46787 14.7035 4.46787 15.0745 4.6967 15.3033C4.92553 15.5321 5.29651 15.5321 5.52534 15.3033L10 10.8286L14.4747 15.3033C14.7035 15.5321 15.0745 15.5321 15.3033 15.3033C15.5321 15.0745 15.5321 14.7035 15.3033 14.4747Z" fill="white"/>
</g>
<defs>
<clipPath id="clip0_447_3531">
<rect width="20" height="20" fill="white"/>
</clipPath>
</defs>
</svg>
