<svg width="16" height="16" viewBox="0 0 16 16" fill="none" xmlns="http://www.w3.org/2000/svg">
<g id="Group">
<g id="Group_2">
<path id="Vector" d="M14.9141 7.41406H8.58594V1.08594C8.58594 0.762324 8.32361 0.5 8 0.5C7.67639 0.5 7.41406 0.762324 7.41406 1.08594V7.41406H1.08594C0.762324 7.41406 0.5 7.67639 0.5 8C0.5 8.32361 0.762324 8.58594 1.08594 8.58594H7.41406V14.9141C7.41406 15.2377 7.67639 15.5 8 15.5C8.32361 15.5 8.58594 15.2377 8.58594 14.9141V8.58594H14.9141C15.2377 8.58594 15.5 8.32361 15.5 8C15.5 7.67639 15.2377 7.41406 14.9141 7.41406Z" fill="#DAD3CC"/>
</g>
</g>
</svg>
