<svg width="80" height="80" viewBox="0 0 80 80" fill="none" xmlns="http://www.w3.org/2000/svg">
<circle cx="40" cy="40" r="40" fill="#F2F2F2" fill-opacity="0.8"/>
<path d="M46.4987 34.503C46.4485 38.089 43.4831 40.9861 39.9232 40.9295C36.3633 40.8728 33.4388 37.8956 33.5078 34.3832C33.5794 30.7621 36.5136 27.878 40.0638 27.9379C43.6732 28.0011 46.5488 30.9347 46.4987 34.503ZM40.039 29.8051C37.4349 29.7967 35.3782 31.85 35.3769 34.4542C35.3772 35.6697 35.8579 36.8358 36.7142 37.6985C37.5705 38.5611 38.7331 39.0504 39.9485 39.0597C42.5566 39.0773 44.6302 37.0291 44.6302 34.434C44.6337 33.8283 44.5176 33.2279 44.2886 32.6672C44.0596 32.1065 43.7221 31.5965 43.2956 31.1664C42.8691 30.7364 42.3618 30.3948 41.803 30.1612C41.2442 29.9276 40.6447 29.8066 40.039 29.8051Z" fill="#9C8D7F"/>
<path d="M40.0475 42.7807H45.3945C48.1784 42.7865 50.1673 44.7475 50.1966 47.5222C50.209 48.6667 50.2025 49.8119 50.1966 50.9565C50.1966 51.6277 49.8418 52.0456 49.2852 52.0541C48.7168 52.0626 48.3496 51.629 48.3483 50.9363C48.3483 49.8061 48.3483 48.6759 48.3483 47.5456C48.3412 45.8354 47.1686 44.6374 45.457 44.6316C41.8199 44.6199 38.183 44.6199 34.5462 44.6316C32.834 44.6374 31.6621 45.8354 31.6556 47.5456C31.6511 48.7175 31.6647 49.8933 31.6504 51.0665C31.6406 51.8477 30.8731 52.3256 30.2734 51.9037C30.0488 51.7455 29.8386 51.3966 29.8307 51.1283C29.7923 49.7384 29.7656 48.3445 29.8386 46.9565C29.9512 44.7299 31.9733 42.836 34.2656 42.7898C36.1921 42.7527 38.1198 42.782 40.0469 42.782L40.0475 42.7807Z" fill="#9C8D7F"/>
</svg>
