<svg width="14" height="18" viewBox="0 0 14 18" fill="none" xmlns="http://www.w3.org/2000/svg">
<g id="Group 93">
<path id="Vector" d="M9.30963 6.36377C9.09134 6.36377 8.91443 6.54068 8.91443 6.75897V14.2282C8.91443 14.4463 9.09134 14.6234 9.30963 14.6234C9.52791 14.6234 9.70483 14.4463 9.70483 14.2282V6.75897C9.70483 6.54068 9.52791 6.36377 9.30963 6.36377Z" fill="#9C8D7F"/>
<path id="Vector_2" d="M4.64624 6.36377C4.42795 6.36377 4.25104 6.54068 4.25104 6.75897V14.2282C4.25104 14.4463 4.42795 14.6234 4.64624 14.6234C4.86452 14.6234 5.04143 14.4463 5.04143 14.2282V6.75897C5.04143 6.54068 4.86452 6.36377 4.64624 6.36377Z" fill="#9C8D7F"/>
<path id="Vector_3" d="M1.24743 5.27385V15.0107C1.24743 15.5862 1.45846 16.1267 1.8271 16.5144C2.19405 16.9033 2.70472 17.1241 3.23917 17.125H10.7164C11.251 17.1241 11.7617 16.9033 12.1285 16.5144C12.4972 16.1267 12.7082 15.5862 12.7082 15.0107V5.27385C13.441 5.07934 13.9159 4.37138 13.8178 3.61942C13.7197 2.86762 13.0792 2.30523 12.3209 2.30508H10.2975V1.81108C10.2998 1.39566 10.1355 0.99676 9.84145 0.703294C9.54737 0.409984 9.14785 0.246656 8.73243 0.250052H5.22319C4.80777 0.246656 4.40825 0.409984 4.11416 0.703294C3.82008 0.99676 3.65582 1.39566 3.65814 1.81108V2.30508H1.63475C0.876467 2.30523 0.235967 2.86762 0.137785 3.61942C0.0397571 4.37138 0.514613 5.07934 1.24743 5.27385ZM10.7164 16.3346H3.23917C2.56347 16.3346 2.03783 15.7542 2.03783 15.0107V5.30858H11.9178V15.0107C11.9178 15.7542 11.3921 16.3346 10.7164 16.3346ZM4.44854 1.81108C4.44591 1.6053 4.52681 1.40724 4.67284 1.26197C4.81873 1.11671 5.01725 1.0369 5.22319 1.04045H8.73243C8.93836 1.0369 9.13689 1.11671 9.28277 1.26197C9.42881 1.40709 9.5097 1.6053 9.50708 1.81108V2.30508H4.44854V1.81108ZM1.63475 3.09548H12.3209C12.7137 3.09548 13.0322 3.41395 13.0322 3.80683C13.0322 4.19971 12.7137 4.51819 12.3209 4.51819H1.63475C1.24187 4.51819 0.923397 4.19971 0.923397 3.80683C0.923397 3.41395 1.24187 3.09548 1.63475 3.09548Z" fill="#9C8D7F"/>
<path id="Vector_4" d="M6.9779 6.36377C6.75962 6.36377 6.5827 6.54068 6.5827 6.75897V14.2282C6.5827 14.4463 6.75962 14.6234 6.9779 14.6234C7.19619 14.6234 7.3731 14.4463 7.3731 14.2282V6.75897C7.3731 6.54068 7.19619 6.36377 6.9779 6.36377Z" fill="white"/>
</g>
</svg>
