<svg width="121" height="36" viewBox="0 0 121 36" fill="none" xmlns="http://www.w3.org/2000/svg">
<g clip-path="url(#clip0_960_3665)">
<path d="M116.527 35.9271H4.48179C1.97199 35.9271 0 33.9551 0 31.4453V4.55455C0 2.04474 1.97199 0.0727539 4.48179 0.0727539H116.527C119.036 0.0727539 121.008 2.04474 121.008 4.55455V31.4453C121.008 33.9551 119.036 35.9271 116.527 35.9271Z" fill="black"/>
<path d="M116.527 0.789841C118.588 0.789841 120.291 2.49292 120.291 4.55455V31.4453C120.291 33.5069 118.588 35.21 116.527 35.21H4.48179C2.42017 35.21 0.717087 33.5069 0.717087 31.4453V4.55455C0.717087 2.49292 2.42017 0.789841 4.48179 0.789841H116.527ZM116.527 0.0727539H4.48179C1.97199 0.0727539 0 2.13438 0 4.55455V31.4453C0 33.9551 1.97199 35.9271 4.48179 35.9271H116.527C119.036 35.9271 121.008 33.9551 121.008 31.4453V4.55455C121.008 2.13438 119.036 0.0727539 116.527 0.0727539Z" fill="#A6A6A6"/>
<path d="M61.042 19.6135C58.8908 19.6135 57.1877 21.227 57.1877 23.4679C57.1877 25.6191 58.8908 27.3222 61.042 27.3222C63.1933 27.3222 64.8964 25.7088 64.8964 23.4679C64.8964 21.1373 63.1933 19.6135 61.042 19.6135ZM61.042 25.7088C59.8767 25.7088 58.8908 24.7228 58.8908 23.3782C58.8908 22.0337 59.8767 21.0477 61.042 21.0477C62.2073 21.0477 63.1933 21.9441 63.1933 23.3782C63.1933 24.7228 62.2073 25.7088 61.042 25.7088ZM52.7059 19.6135C50.5546 19.6135 48.8515 21.227 48.8515 23.4679C48.8515 25.6191 50.5546 27.3222 52.7059 27.3222C54.8571 27.3222 56.5602 25.7088 56.5602 23.4679C56.5602 21.1373 54.8571 19.6135 52.7059 19.6135ZM52.7059 25.7088C51.5406 25.7088 50.5546 24.7228 50.5546 23.3782C50.5546 22.0337 51.5406 21.0477 52.7059 21.0477C53.8711 21.0477 54.8571 21.9441 54.8571 23.3782C54.8571 24.7228 53.8711 25.7088 52.7059 25.7088ZM42.7563 20.7788V22.3922H46.6106C46.521 23.2886 46.1625 24.0057 45.7143 24.4539C45.1765 24.9917 44.2801 25.6191 42.7563 25.6191C40.3361 25.6191 38.5434 23.7368 38.5434 21.3166C38.5434 18.8964 40.4258 17.0141 42.7563 17.0141C44.0112 17.0141 44.9972 17.5519 45.7143 18.1793L46.8795 17.0141C45.8936 16.1177 44.6387 15.4006 42.8459 15.4006C39.619 15.4006 36.8403 18.0897 36.8403 21.3166C36.8403 24.5435 39.619 27.2326 42.8459 27.2326C44.6387 27.2326 45.8936 26.6948 46.9692 25.5295C48.0448 24.4539 48.4034 22.93 48.4034 21.7648C48.4034 21.4062 48.4034 21.0477 48.3137 20.7788H42.7563ZM83.451 22.0337C83.0924 21.1373 82.1961 19.6135 80.2241 19.6135C78.2521 19.6135 76.6387 21.1373 76.6387 23.4679C76.6387 25.6191 78.2521 27.3222 80.4034 27.3222C82.1064 27.3222 83.1821 26.2466 83.5406 25.6191L82.2857 24.7228C81.8375 25.3502 81.2997 25.7984 80.4034 25.7984C79.507 25.7984 78.9692 25.4398 78.521 24.6331L83.6303 22.4819L83.451 22.0337ZM78.2521 23.2886C78.2521 21.8544 79.4174 21.0477 80.2241 21.0477C80.8515 21.0477 81.479 21.4062 81.6583 21.8544L78.2521 23.2886ZM74.0392 26.9637H75.7423V15.7592H74.0392V26.9637ZM71.3501 20.4202C70.902 19.9721 70.1849 19.5239 69.2885 19.5239C67.4062 19.5239 65.6134 21.227 65.6134 23.3782C65.6134 25.5295 67.3165 27.1429 69.2885 27.1429C70.1849 27.1429 70.902 26.6948 71.2605 26.2466H71.3501V26.7844C71.3501 28.2186 70.5434 29.0253 69.2885 29.0253C68.3025 29.0253 67.5854 28.3082 67.4062 27.6807L65.972 28.3082C66.4202 29.2942 67.4958 30.5491 69.3782 30.5491C71.3501 30.5491 72.9636 29.3838 72.9636 26.6051V19.7928H71.3501V20.4202ZM69.3782 25.7088C68.2129 25.7088 67.2269 24.7228 67.2269 23.3782C67.2269 22.0337 68.2129 21.0477 69.3782 21.0477C70.5434 21.0477 71.4398 22.0337 71.4398 23.3782C71.4398 24.7228 70.5434 25.7088 69.3782 25.7088ZM91.2493 15.7592H87.2157V26.9637H88.9188V22.7508H91.2493C93.1317 22.7508 94.9244 21.4062 94.9244 19.255C94.9244 17.1037 93.1317 15.7592 91.2493 15.7592ZM91.3389 21.1373H88.9188V17.283H91.3389C92.5938 17.283 93.3109 18.3586 93.3109 19.1653C93.2213 20.1513 92.5042 21.1373 91.3389 21.1373ZM101.647 19.5239C100.392 19.5239 99.1373 20.0617 98.6891 21.227L100.213 21.8544C100.571 21.227 101.109 21.0477 101.737 21.0477C102.633 21.0477 103.44 21.5855 103.529 22.4819V22.5715C103.261 22.3922 102.543 22.1233 101.826 22.1233C100.213 22.1233 98.5994 23.0197 98.5994 24.6331C98.5994 26.1569 99.944 27.1429 101.378 27.1429C102.543 27.1429 103.081 26.6051 103.529 26.0673H103.619V26.9637H105.232V22.6611C105.053 20.6892 103.529 19.5239 101.647 19.5239ZM101.468 25.7088C100.93 25.7088 100.123 25.4398 100.123 24.7228C100.123 23.8264 101.109 23.5575 101.916 23.5575C102.633 23.5575 102.992 23.7368 103.44 23.916C103.261 24.9917 102.364 25.7088 101.468 25.7088ZM110.88 19.7928L108.997 24.6331H108.908L106.936 19.7928H105.143L108.101 26.6051L106.398 30.3698H108.101L112.672 19.7928H110.88ZM95.8207 26.9637H97.5238V15.7592H95.8207V26.9637Z" fill="white"/>
<path d="M9.32217 6.79565C9.05326 7.06456 8.96362 7.51274 8.96362 8.05056V27.8601C8.96362 28.3979 9.14289 28.8461 9.4118 29.115L9.50144 29.2046L20.6163 18.0898V17.9105L9.32217 6.79565Z" fill="url(#paint0_linear_960_3665)"/>
<path d="M24.2017 21.8544L20.5266 18.1793V17.9104L24.2017 14.2354L24.2913 14.325L28.6835 16.8348C29.9384 17.5519 29.9384 18.7171 28.6835 19.4342L24.2017 21.8544Z" fill="url(#paint1_linear_960_3665)"/>
<path d="M24.2913 21.7647L20.5266 18L9.32214 29.2045C9.77032 29.6527 10.3978 29.6527 11.2045 29.2941L24.2913 21.7647Z" fill="url(#paint2_linear_960_3665)"/>
<path d="M24.2913 14.2354L11.2045 6.79563C10.3978 6.34745 9.77032 6.43709 9.32214 6.88527L20.5266 18.0001L24.2913 14.2354Z" fill="url(#paint3_linear_960_3665)"/>
<path opacity="0.2" d="M24.2017 21.675L11.2045 29.0252C10.4874 29.4734 9.85996 29.3837 9.41178 29.0252L9.32214 29.1148L9.41178 29.2045C9.85996 29.563 10.4874 29.6526 11.2045 29.2045L24.2017 21.675Z" fill="black"/>
<path opacity="0.12" d="M9.32217 29.0252C9.05326 28.7563 8.96362 28.3081 8.96362 27.7703V27.8599C8.96362 28.3978 9.14289 28.8459 9.4118 29.1148V29.0252H9.32217ZM28.6835 19.1653L24.2017 21.6751L24.2914 21.7647L28.6835 19.2549C29.311 18.8964 29.5799 18.4482 29.5799 18C29.5799 18.4482 29.2213 18.8067 28.6835 19.1653Z" fill="black"/>
<path opacity="0.25" d="M11.2045 6.88513L28.6835 16.8347C29.2213 17.1933 29.5799 17.5518 29.5799 18C29.5799 17.5518 29.311 17.1036 28.6835 16.7451L11.2045 6.79549C9.94962 6.0784 8.96362 6.61622 8.96362 8.05039V8.14003C8.96362 6.79549 9.94962 6.16804 11.2045 6.88513Z" fill="white"/>
<path d="M41.4118 11.0085C40.874 11.5463 40.2465 11.8152 39.4398 11.8152C38.6331 11.8152 38.0056 11.5463 37.4678 11.0085C36.93 10.4707 36.6611 9.84325 36.6611 9.03652C36.6611 8.2298 36.93 7.60235 37.4678 7.06454C38.0056 6.52672 38.6331 6.25781 39.4398 6.25781C40.2465 6.25781 40.874 6.52672 41.4118 7.06454C41.9496 7.60235 42.2185 8.2298 42.2185 9.03652C42.2185 9.84325 41.9496 10.4707 41.4118 11.0085ZM38.0056 10.5603C38.3642 10.9189 38.902 11.1878 39.4398 11.1878C39.9776 11.1878 40.5154 11.0085 40.874 10.5603C41.2325 10.2018 41.5014 9.66398 41.5014 9.03652C41.5014 8.40907 41.3221 7.87126 40.874 7.51271C40.5154 7.15417 39.9776 6.88526 39.4398 6.88526C38.902 6.88526 38.3642 7.06454 38.0056 7.51271C37.6471 7.87126 37.3782 8.40907 37.3782 9.03652C37.3782 9.66398 37.5574 10.2018 38.0056 10.5603ZM43.2045 11.7256V6.34745H44.0112L46.6107 10.5603V6.34745H47.3277V11.7256H46.6107L43.9216 7.33344V11.7256H43.2045ZM50.3754 11.7256H49.6583V6.9749H48.1345V6.34745H51.8095V6.9749H50.2857V11.7256H50.3754ZM52.7955 11.7256V6.34745H54.409C55.2157 6.34745 55.9328 6.61636 56.381 7.06454C56.9188 7.60235 57.098 8.2298 57.098 9.03652C57.098 9.84325 56.8291 10.4707 56.381 11.0085C55.8431 11.5463 55.2157 11.7256 54.409 11.7256H52.7955ZM53.423 11.0981H54.409C55.0364 11.0981 55.4846 10.9189 55.8431 10.5603C56.2017 10.2018 56.381 9.66398 56.381 9.03652C56.381 8.40907 56.2017 7.87126 55.8431 7.51271C55.4846 7.15417 54.9468 6.9749 54.409 6.9749H53.423V11.0981ZM61.2213 6.9749H58.8011V8.67798H61.042V9.30543H58.8011V11.0085H61.2213V11.7256H58.084V6.34745H61.2213V6.9749ZM66.3305 6.34745L64.3586 8.67798L66.5098 11.7256H65.7031L63.9104 9.2158L63.1036 10.2018V11.7256H62.3866V6.34745H63.1036V9.12616L65.4342 6.34745H66.3305ZM68.93 11.7256V6.34745H69.6471V8.67798H72.3361V6.34745H73.0532V11.7256H72.3361V9.30543H69.6471V11.7256H68.93ZM77.4454 6.9749H75.0252V8.67798H77.2661V9.30543H75.0252V11.0085H77.4454V11.7256H74.3081V6.34745H77.4454V6.9749ZM80.3137 11.7256H79.5966V6.9749H78.0728V6.34745H81.7479V6.9749H80.2241V11.7256H80.3137ZM88.8291 11.0085C88.2913 11.5463 87.6639 11.8152 86.8572 11.8152C86.0504 11.8152 85.423 11.5463 84.8852 11.0085C84.3473 10.4707 84.0784 9.84325 84.0784 9.03652C84.0784 8.2298 84.3473 7.60235 84.8852 7.06454C85.423 6.52672 86.0504 6.25781 86.8572 6.25781C87.6639 6.25781 88.2913 6.52672 88.8291 7.06454C89.367 7.60235 89.6359 8.2298 89.6359 9.03652C89.6359 9.84325 89.367 10.4707 88.8291 11.0085ZM85.423 10.5603C85.7815 10.9189 86.3193 11.1878 86.8572 11.1878C87.395 11.1878 87.9328 11.0085 88.2913 10.5603C88.6499 10.2018 88.9188 9.66398 88.9188 9.03652C88.9188 8.40907 88.7395 7.87126 88.2913 7.51271C87.9328 7.15417 87.395 6.88526 86.8572 6.88526C86.3193 6.88526 85.7815 7.06454 85.423 7.51271C85.0644 7.87126 84.7955 8.40907 84.7955 9.03652C84.7955 9.66398 84.9748 10.2018 85.423 10.5603ZM91.2493 11.7256H90.5322V6.34745H92.3249C92.7731 6.34745 93.1317 6.52672 93.4902 6.79563C93.8487 7.06454 94.028 7.51271 94.028 7.96089C94.028 8.40907 93.8487 8.76762 93.4902 9.12616C93.1317 9.39507 92.7731 9.57434 92.3249 9.57434H91.1597V11.7256H91.2493ZM91.2493 8.85725H92.4146C92.6835 8.85725 92.9524 8.76762 93.1317 8.58834C93.3109 8.40907 93.4006 8.14017 93.4006 7.96089C93.4006 7.78162 93.3109 7.51271 93.1317 7.33344C92.9524 7.15417 92.6835 7.06454 92.4146 7.06454H91.2493V8.85725Z" fill="white" stroke="white" stroke-width="0.179272" stroke-miterlimit="10"/>
</g>
<defs>
<linearGradient id="paint0_linear_960_3665" x1="19.5407" y1="7.88025" x2="4.49707" y2="22.9229" gradientUnits="userSpaceOnUse">
<stop stop-color="#00A0FF"/>
<stop offset="0.007" stop-color="#00A1FF"/>
<stop offset="0.26" stop-color="#00BEFF"/>
<stop offset="0.512" stop-color="#00D2FF"/>
<stop offset="0.76" stop-color="#00DFFF"/>
<stop offset="1" stop-color="#00E3FF"/>
</linearGradient>
<linearGradient id="paint1_linear_960_3665" x1="30.3274" y1="18.001" x2="8.63821" y2="18.001" gradientUnits="userSpaceOnUse">
<stop stop-color="#FFE000"/>
<stop offset="0.409" stop-color="#FFBD00"/>
<stop offset="0.775" stop-color="#FFA500"/>
<stop offset="1" stop-color="#FF9C00"/>
</linearGradient>
<linearGradient id="paint2_linear_960_3665" x1="22.2539" y1="20.058" x2="1.85458" y2="40.4574" gradientUnits="userSpaceOnUse">
<stop stop-color="#FF3A44"/>
<stop offset="1" stop-color="#C31162"/>
</linearGradient>
<linearGradient id="paint3_linear_960_3665" x1="6.54074" y1="0.230702" x2="15.6504" y2="9.34039" gradientUnits="userSpaceOnUse">
<stop stop-color="#32A071"/>
<stop offset="0.069" stop-color="#2DA771"/>
<stop offset="0.476" stop-color="#15CF74"/>
<stop offset="0.801" stop-color="#06E775"/>
<stop offset="1" stop-color="#00F076"/>
</linearGradient>
<clipPath id="clip0_960_3665">
<rect width="121.008" height="36" fill="white"/>
</clipPath>
</defs>
</svg>
