<svg xmlns="http://www.w3.org/2000/svg" width="80" height="80" fill="none">
  <circle cx="40" cy="40" r="40" fill="#F2F2F2" fill-opacity=".8"/>
  <path fill="#9C8D7F" d="M48.333 37.708a.633.633 0 0 0-.625.625v5l-3.483-3.983a2.366 2.366 0 0 0-3.45 0l-2.392 2.733-.783-.95a2.3 2.3 0 0 0-3.533 0l-1.775 2.142V35A2.717 2.717 0 0 1 35 32.292h6.667a.625.625 0 0 0 0-1.25H35A3.958 3.958 0 0 0 31.042 35v10a.076.076 0 0 0 0 .042A3.959 3.959 0 0 0 35 48.958h10a3.959 3.959 0 0 0 3.95-3.9v-6.725a.633.633 0 0 0-.617-.625Zm-3.333 10H35a2.709 2.709 0 0 1-2.692-2.5L35 41.933a1.073 1.073 0 0 1 1.6 0l1.258 1.517a.617.617 0 0 0 .475.225c.18-.01.35-.087.475-.217l2.867-3.283a1.093 1.093 0 0 1 1.583 0l4.392 5A2.7 2.7 0 0 1 45 47.708Z"/>
  <path fill="#9C8D7F" d="M33.542 35.833a2.291 2.291 0 1 0 4.582 0 2.291 2.291 0 0 0-4.582 0Zm3.333 0a1.041 1.041 0 1 1-2.083 0 1.041 1.041 0 0 1 2.083 0ZM43.333 34.792h1.875v1.875a.625.625 0 1 0 1.25 0v-1.875h1.875a.625.625 0 0 0 0-1.25h-1.875v-1.875a.625.625 0 0 0-1.25 0v1.875h-1.875a.625.625 0 1 0 0 1.25Z"/>
</svg>
