<svg width="10" height="10" viewBox="0 0 10 10" fill="none" xmlns="http://www.w3.org/2000/svg">
<g clip-path="url(#clip0_1022_1094)">
<path d="M9.52805 5.32909C9.40373 5.32909 9.2845 5.37848 9.1966 5.46638C9.10869 5.55429 9.0593 5.67352 9.0593 5.79784V7.68475C9.05889 8.0492 8.91393 8.39859 8.65623 8.65629C8.39853 8.91399 8.04913 9.05895 7.68469 9.05936H2.31516C1.95072 9.05895 1.60132 8.91399 1.34362 8.65629C1.08592 8.39859 0.940965 8.0492 0.940552 7.68475V2.31522C0.940965 1.95078 1.08592 1.60138 1.34362 1.34368C1.60132 1.08598 1.95072 0.941026 2.31516 0.940613H4.20208C4.3264 0.940613 4.44562 0.891227 4.53353 0.803319C4.62144 0.715411 4.67083 0.596183 4.67083 0.471863C4.67083 0.347543 4.62144 0.228314 4.53353 0.140406C4.44562 0.0524988 4.3264 0.00311279 4.20208 0.00311279H2.31516C1.70217 0.00383645 1.1145 0.247665 0.681052 0.681113C0.247604 1.11456 0.00377541 1.70223 0.00305176 2.31522V7.68475C0.00377541 8.29774 0.247604 8.88541 0.681052 9.31886C1.1145 9.75231 1.70217 9.99614 2.31516 9.99686H7.68469C8.29768 9.99614 8.88535 9.75231 9.3188 9.31886C9.75225 8.88541 9.99608 8.29774 9.9968 7.68475V5.79784C9.9968 5.67352 9.94742 5.55429 9.85951 5.46638C9.7716 5.37848 9.65237 5.32909 9.52805 5.32909Z" fill="#9C8D7F"/>
<path d="M9.51811 3.96047e-08H6.60404C6.4813 -2.34996e-05 6.36344 0.0481004 6.27579 0.134032C6.18814 0.219965 6.1377 0.336848 6.13529 0.45957C6.13041 0.722656 6.3517 0.9375 6.61459 0.9375H8.39838L4.66518 4.67188C4.57727 4.75978 4.52789 4.87901 4.52789 5.00332C4.52789 5.12764 4.57727 5.24686 4.66518 5.33477C4.75308 5.42267 4.87231 5.47205 4.99662 5.47205C5.12094 5.47205 5.24016 5.42267 5.32807 5.33477L9.06244 1.60156V3.3918C9.06244 3.51612 9.11183 3.63535 9.19974 3.72325C9.28764 3.81116 9.40687 3.86055 9.53119 3.86055C9.65551 3.86055 9.77474 3.81116 9.86265 3.72325C9.95055 3.63535 9.99994 3.51612 9.99994 3.3918V0.481641C9.99994 0.418374 9.98748 0.355728 9.96326 0.29728C9.93904 0.238832 9.90355 0.185727 9.8588 0.141C9.81406 0.0962732 9.76094 0.0607999 9.70248 0.0366067C9.64402 0.0124135 9.58137 -2.56159e-05 9.51811 3.96047e-08Z" fill="#9C8D7F"/>
</g>
<defs>
<clipPath id="clip0_1022_1094">
<rect width="10" height="10" fill="white"/>
</clipPath>
</defs>
</svg>
