<svg width="112" height="40" viewBox="0 0 112 40" fill="none" xmlns="http://www.w3.org/2000/svg">
<path fill-rule="evenodd" clip-rule="evenodd" d="M0.897422 19.5728L0.897422 29.1676L9.25456 24.3627L9.25456 14.7417L17.6131 9.93118L0.897156 0.319092L0.897156 19.5631L0.897422 19.5728ZM2.29987 19.544L2.30014 19.5537L2.30014 26.7431L7.85184 23.5512L7.85184 13.9306L14.8 9.9317L2.29987 2.74378L2.29987 19.544Z" fill="#9C8D7F"/>
<path fill-rule="evenodd" clip-rule="evenodd" d="M18.781 20.4274L18.781 10.8327L10.4238 15.6375L10.4238 25.2585L2.06534 30.0691L18.7812 39.6812L18.7813 20.4371L18.781 20.4274ZM17.3785 20.4563L17.3783 20.4466L17.3783 13.2572L11.8266 16.4491L11.8266 26.0697L4.87837 30.0685L17.3785 37.2565L17.3785 20.4563Z" fill="#10101C"/>
<path d="M111.279 21.7123V22.0713H103.625C103.723 22.9853 104.076 23.7088 104.685 24.242C105.295 24.7751 106.062 25.0417 106.987 25.0417C108.271 25.0417 109.277 24.601 110.006 23.7197L110.936 24.4868C110.055 25.6619 108.717 26.2494 106.921 26.2494C105.518 26.2494 104.392 25.836 103.543 25.0091C102.694 24.1713 102.27 23.0506 102.27 21.647C102.27 20.2651 102.683 19.1608 103.51 18.3338C104.337 17.496 105.414 17.0771 106.742 17.0771C108.2 17.0771 109.321 17.5015 110.104 18.3502C110.887 19.188 111.279 20.3087 111.279 21.7123ZM106.758 18.2849C105.953 18.2849 105.268 18.5243 104.702 19.003C104.136 19.4709 103.788 20.1183 103.657 20.9452H109.892C109.805 20.1291 109.495 19.4817 108.962 19.003C108.439 18.5243 107.705 18.2849 106.758 18.2849Z" fill="#10101C"/>
<path d="M95.9665 26.2494C94.6173 26.2494 93.5402 25.8359 92.735 25.009C91.9407 24.1821 91.5436 23.0559 91.5436 21.6306C91.5436 20.2379 91.9407 19.1335 92.735 18.3175C93.5293 17.4905 94.5792 17.0771 95.8849 17.0771C97.2123 17.0771 98.2569 17.4633 99.0185 18.2359V13.7803H100.308V26.0862H99.0185V25.0416C98.3113 25.8468 97.2939 26.2494 95.9665 26.2494ZM96.0808 25.0253C96.6574 25.0253 97.2123 24.9002 97.7455 24.6499C98.2895 24.3997 98.7138 24.0189 99.0185 23.5075V19.7863C98.6921 19.3185 98.2514 18.954 97.6965 18.6928C97.1416 18.4317 96.5867 18.3011 96.0318 18.3011C95.107 18.3011 94.3508 18.6003 93.7632 19.1988C93.1865 19.7972 92.8982 20.6078 92.8982 21.6306C92.8982 22.6751 93.1865 23.502 93.7632 24.1113C94.3508 24.7206 95.1233 25.0253 96.0808 25.0253Z" fill="#10101C"/>
<path d="M85.2401 26.2494C83.8909 26.2494 82.8137 25.836 82.0086 25.0091C81.2143 24.1821 80.8171 23.056 80.8171 21.6307C80.8171 20.2379 81.2143 19.1336 82.0086 18.3175C82.8028 17.4906 83.8528 17.0771 85.1585 17.0771C86.4859 17.0771 87.5304 17.4634 88.2921 18.2359V17.2567H89.5814V26.0862H88.2921V25.0417C87.5848 25.8469 86.5675 26.2494 85.2401 26.2494ZM85.3543 25.0254C85.931 25.0254 86.4859 24.9002 87.019 24.65C87.5631 24.3997 87.9874 24.0189 88.2921 23.5075V19.7864C87.9656 19.3185 87.525 18.954 86.9701 18.6929C86.4152 18.4318 85.8603 18.3012 85.3054 18.3012C84.3805 18.3012 83.6243 18.6004 83.0368 19.1989C82.4601 19.7973 82.1718 20.6079 82.1718 21.6307C82.1718 22.6752 82.4601 23.5021 83.0368 24.1114C83.6243 24.7207 84.3968 25.0254 85.3543 25.0254Z" fill="#10101C"/>
<path d="M74.8991 26.2821C73.6478 26.2821 72.6359 25.9285 71.8634 25.2212C71.0909 24.514 70.6829 23.4695 70.6393 22.0876H72.0103C72.0538 23.0995 72.3367 23.8394 72.859 24.3073C73.3812 24.7751 74.0558 25.0091 74.8827 25.0091C76.6998 25.0091 77.6083 23.834 77.6083 21.4838V14.5801H79.0119V21.5164C79.0119 23.1594 78.6746 24.3671 78 25.1396C77.3254 25.9013 76.2918 26.2821 74.8991 26.2821Z" fill="#10101C"/>
<path d="M65.7753 21.7123V22.0713H58.1209C58.2188 22.9853 58.5724 23.7088 59.1817 24.242C59.791 24.7751 60.5581 25.0417 61.4829 25.0417C62.7668 25.0417 63.7733 24.601 64.5023 23.7197L65.4326 24.4868C64.5513 25.6619 63.213 26.2494 61.4177 26.2494C60.0141 26.2494 58.8879 25.836 58.0393 25.0091C57.1906 24.1713 56.7662 23.0506 56.7662 21.647C56.7662 20.2651 57.1797 19.1608 58.0066 18.3338C58.8335 17.496 59.9107 17.0771 61.2381 17.0771C62.6961 17.0771 63.8168 17.5015 64.6002 18.3502C65.3836 19.188 65.7753 20.3087 65.7753 21.7123ZM61.2545 18.2849C60.4493 18.2849 59.7638 18.5243 59.198 19.003C58.6322 19.4709 58.2841 20.1183 58.1535 20.9452H64.388C64.301 20.1291 63.9909 19.4817 63.4578 19.003C62.9355 18.5243 62.2011 18.2849 61.2545 18.2849Z" fill="#10101C"/>
<path d="M54.2335 26.2657C53.276 26.2657 52.6068 26.0263 52.226 25.5476C51.8561 25.0579 51.6711 24.3017 51.6711 23.279V18.4643H50.2186V17.2566H51.6711V13.7803H52.9605V17.2566H56.0941V18.4643H52.9605V23.1484C52.9605 23.8448 53.0584 24.3398 53.2542 24.6336C53.461 24.9165 53.8635 25.0579 54.462 25.0579C55.0386 25.0579 55.5772 24.9655 56.0777 24.7805V26.0209C55.5772 26.1841 54.9625 26.2657 54.2335 26.2657Z" fill="#10101C"/>
<path d="M44.4699 26.2494C43.1207 26.2494 42.0436 25.836 41.2384 25.0091C40.4441 24.1821 40.047 23.056 40.047 21.6307C40.047 20.2379 40.4441 19.1336 41.2384 18.3175C42.0327 17.4906 43.0827 17.0771 44.3883 17.0771C45.7158 17.0771 46.7603 17.4634 47.5219 18.2359V17.2567H48.8113V26.0862H47.5219V25.0417C46.8147 25.8469 45.7974 26.2494 44.4699 26.2494ZM44.5842 25.0254C45.1608 25.0254 45.7158 24.9002 46.2489 24.65C46.7929 24.3997 47.2173 24.0189 47.5219 23.5075V19.7864C47.1955 19.3185 46.7548 18.954 46.1999 18.6929C45.645 18.4318 45.0901 18.3012 44.5352 18.3012C43.6104 18.3012 42.8542 18.6004 42.2666 19.1989C41.69 19.7973 41.4016 20.6079 41.4016 21.6307C41.4016 22.6752 41.69 23.5021 42.2666 24.1114C42.8542 24.7207 43.6267 25.0254 44.5842 25.0254Z" fill="#10101C"/>
<path d="M36.6811 26.0862V13.7803H38.0194V26.0862H36.6811Z" fill="#10101C"/>
<path d="M30.7161 14.5801C33.5342 14.5801 34.9432 15.8749 34.9432 18.4644C34.9432 21.1193 33.3873 22.4467 30.2754 22.4467H27.5335V26.0862H26.1626V14.5801H30.7161ZM30.1938 21.1737C32.4135 21.1737 33.5233 20.276 33.5233 18.4807C33.5233 16.729 32.5331 15.8531 30.5529 15.8531H27.5335V21.1737H30.1938Z" fill="#10101C"/>
</svg>
