<svg width="18" height="18" viewBox="0 0 18 18" fill="none" xmlns="http://www.w3.org/2000/svg">
<g id="Group 96">
<g id="Group">
<g id="Group_2">
<path id="Vector" d="M15.3639 2.63602C13.6641 0.936141 11.404 0 9 0C6.59598 0 4.33589 0.936141 2.63602 2.63602C0.936176 4.33586 0 6.59598 0 9C0 11.404 0.936176 13.6641 2.63602 15.3639C4.33589 17.0638 6.59602 18 9 18C11.404 18 13.6641 17.0638 15.3639 15.3639C17.0638 13.6641 18 11.4039 18 9C18 6.59598 17.0638 4.33589 15.3639 2.63602ZM9 16.9453C4.61893 16.9453 1.05469 13.3811 1.05469 9C1.05469 4.61893 4.61893 1.05469 9 1.05469C13.3811 1.05469 16.9453 4.61893 16.9453 9C16.9453 13.3811 13.3811 16.9453 9 16.9453Z" fill="#4BBB49"/>
</g>
</g>
<g id="Group_3">
<g id="Group_4">
<path id="Vector_2" d="M13.7823 8.54332L7.00415 4.62997C6.84099 4.53576 6.63997 4.53576 6.47681 4.62997C6.31365 4.72416 6.21313 4.89825 6.21313 5.08665V12.9132C6.21313 13.1016 6.31365 13.2757 6.47681 13.3699C6.55837 13.417 6.64942 13.4405 6.74048 13.4405C6.83153 13.4405 6.92259 13.417 7.00415 13.3699L13.7823 9.45668C13.9455 9.36246 14.046 9.18837 14.046 8.99997C14.046 8.8116 13.9455 8.63751 13.7823 8.54332ZM7.26782 11.9998V6.00005L12.4639 9L7.26782 11.9998Z" fill="#4BBB49"/>
</g>
</g>
</g>
</svg>
