<svg width="20" height="20" viewBox="0 0 20 20" fill="none" xmlns="http://www.w3.org/2000/svg">
<path d="M16.3639 3.63602C14.6641 1.93614 12.404 1 10 1C7.59598 1 5.33589 1.93614 3.63602 3.63602C1.93618 5.33586 1 7.59598 1 10C1 12.404 1.93618 14.6641 3.63602 16.3639C5.33589 18.0638 7.59602 19 10 19C12.404 19 14.6641 18.0638 16.3639 16.3639C18.0638 14.6641 19 12.4039 19 10C19 7.59598 18.0638 5.33589 16.3639 3.63602ZM10 17.9453C5.61893 17.9453 2.05469 14.3811 2.05469 10C2.05469 5.61893 5.61893 2.05469 10 2.05469C14.3811 2.05469 17.9453 5.61893 17.9453 10C17.9453 14.3811 14.3811 17.9453 10 17.9453Z" fill="#DAD3CC"/>
<path d="M14.7823 9.54332L8.00415 5.62997C7.84099 5.53576 7.63997 5.53576 7.47681 5.62997C7.31365 5.72416 7.21313 5.89825 7.21313 6.08665V13.9132C7.21313 14.1016 7.31365 14.2757 7.47681 14.3699C7.55837 14.417 7.64942 14.4405 7.74048 14.4405C7.83153 14.4405 7.92259 14.417 8.00415 14.3699L14.7823 10.4567C14.9455 10.3625 15.046 10.1884 15.046 9.99997C15.046 9.8116 14.9455 9.63751 14.7823 9.54332ZM8.26782 12.9998V7.00005L13.4639 10L8.26782 12.9998Z" fill="#DAD3CC"/>
</svg>
