<svg width="110" height="36" viewBox="0 0 110 36" fill="none" xmlns="http://www.w3.org/2000/svg">
<g id="App_Store_(iOS)-Badge-Alternative-Logo.wine 1" clip-path="url(#clip0_960_3661)">
<path id="Vector" d="M101.194 -0.0323805H8.81085C8.4741 -0.0323805 8.1414 -0.0323805 7.80547 -0.0305773C7.52438 -0.028774 7.24548 -0.0235446 6.96163 -0.0191267C6.34499 -0.012005 5.7298 0.0412549 5.1214 0.14019C4.51386 0.24128 3.92534 0.431868 3.37577 0.705509C2.82688 0.981477 2.32535 1.34006 1.88937 1.76825C1.4511 2.19521 1.08576 2.68871 0.807404 3.22979C0.528274 3.76984 0.334728 4.34855 0.233453 4.94594C0.131208 5.54255 0.0761893 6.14604 0.0688901 6.75099C0.0603497 7.02743 0.0594314 7.30477 0.0549316 7.5813V28.4216C0.0594314 28.7016 0.0603497 28.9728 0.0688901 29.2529C0.0761962 29.8578 0.131215 30.4612 0.233453 31.0578C0.334456 31.6555 0.528013 32.2345 0.807404 32.7748C1.08563 33.3141 1.45102 33.8056 1.88937 34.2303C2.3237 34.6603 2.82555 35.0192 3.37577 35.293C3.92534 35.5674 4.51379 35.7591 5.1214 35.8617C5.7299 35.9599 6.34503 36.0132 6.96163 36.0212C7.24539 36.0273 7.52437 36.0308 7.80556 36.0308C8.14139 36.0326 8.4741 36.0326 8.81085 36.0326H101.194C101.524 36.0326 101.859 36.0326 102.189 36.0308C102.469 36.0308 102.756 36.0273 103.036 36.0212C103.652 36.0136 104.266 35.9603 104.873 35.8617C105.482 35.7584 106.073 35.5667 106.625 35.293C107.175 35.019 107.676 34.6602 108.11 34.2303C108.547 33.804 108.914 33.3128 109.195 32.7748C109.473 32.2341 109.664 31.6552 109.764 31.0578C109.866 30.4611 109.923 29.8578 109.934 29.2528C109.938 28.9728 109.938 28.7016 109.938 28.4216C109.945 28.0941 109.945 27.7683 109.945 27.4354V8.56569C109.945 8.23543 109.945 7.90796 109.938 7.5813C109.938 7.30477 109.938 7.02743 109.934 6.7509C109.923 6.1459 109.866 5.54254 109.764 4.94585C109.664 4.34887 109.472 3.77026 109.195 3.22988C108.628 2.14526 107.73 1.26238 106.625 0.705419C106.073 0.432449 105.482 0.241912 104.873 0.1401C104.266 0.040744 103.652 -0.0125194 103.036 -0.0192168C102.756 -0.0236348 102.469 -0.0289544 102.189 -0.0306675C101.859 -0.0324707 101.524 -0.0323805 101.194 -0.0323805Z" fill="black"/>
<path id="Vector_2" d="M7.80997 35.2436C7.53016 35.2436 7.25714 35.2401 6.97954 35.2339C6.40448 35.2266 5.83077 35.1775 5.2631 35.087C4.73378 34.9974 4.22101 34.8309 3.74172 34.5929C3.2668 34.3569 2.83364 34.0474 2.45882 33.6763C2.07855 33.3096 1.76196 32.8843 1.52158 32.4172C1.27859 31.947 1.11042 31.4431 1.02294 30.923C0.928494 30.3641 0.877411 29.7989 0.870128 29.2324C0.86425 29.0423 0.856628 28.4093 0.856628 28.4093V7.5811C0.856628 7.5811 0.86471 6.95772 0.870128 6.77451C0.877125 6.20893 0.927932 5.64469 1.02211 5.08667C1.10976 4.5651 1.27808 4.05973 1.52122 3.58808C1.76067 3.12131 2.07547 2.69565 2.45341 2.32761C2.83094 1.95607 3.26551 1.64499 3.74126 1.4057C4.21947 1.16848 4.73127 1.00317 5.25952 0.915304C5.82906 0.823898 6.40478 0.774501 6.98183 0.767528L7.81043 0.756348H102.185L103.024 0.767798C103.595 0.774468 104.166 0.823475 104.73 0.914402C105.264 1.00339 105.781 1.16988 106.265 1.4084C107.218 1.89062 107.993 2.65355 108.482 3.59024C108.722 4.05867 108.887 4.55993 108.974 5.07702C109.069 5.63961 109.123 6.20827 109.134 6.77848C109.136 7.03382 109.136 7.30809 109.136 7.5811C109.144 7.91921 109.144 8.241 109.144 8.5655V27.4352C109.144 27.7628 109.144 28.0824 109.136 28.4047C109.136 28.6979 109.136 28.9665 109.133 29.2429C109.122 29.803 109.069 30.3615 108.976 30.9141C108.89 31.438 108.723 31.9458 108.48 32.4198C108.238 32.8818 107.923 33.3034 107.547 33.6692C107.172 34.0422 106.738 34.3535 106.262 34.5911C105.78 34.8309 105.263 34.998 104.73 35.0868C104.163 35.1778 103.589 35.227 103.014 35.2338C102.739 35.2402 102.464 35.2434 102.19 35.2435L101.194 35.2453L7.80997 35.2436Z" fill="white"/>
<path id="Vector_3" d="M23.01 17.9003C23.0202 17.1177 23.232 16.3504 23.6254 15.6698C24.0189 14.9891 24.5813 14.4172 25.2604 14.0074C24.829 13.4024 24.2599 12.9046 23.5983 12.5534C22.9367 12.2023 22.2007 12.0074 21.449 11.9843C19.8454 11.819 18.2908 12.9265 17.4736 12.9265C16.6407 12.9265 15.3825 12.0007 14.0276 12.0281C13.1513 12.0559 12.2972 12.3061 11.5486 12.7543C10.8001 13.2026 10.1825 13.8335 9.75619 14.5857C7.90926 17.7252 9.28693 22.3391 11.0561 24.8769C11.9412 26.1195 12.9756 27.5076 14.3292 27.4583C15.6538 27.4044 16.1486 26.629 17.7474 26.629C19.3315 26.629 19.7956 27.4583 21.1767 27.427C22.5981 27.4044 23.4936 26.1789 24.3477 24.9245C24.9837 24.039 25.4731 23.0604 25.7977 22.0249C24.972 21.682 24.2673 21.108 23.7715 20.3745C23.2758 19.6411 23.0109 18.7806 23.01 17.9003ZM20.4014 10.3154C21.1764 9.40194 21.5582 8.22786 21.4657 7.04248C20.2817 7.1646 19.1881 7.72021 18.4026 8.59859C18.0186 9.0277 17.7245 9.52691 17.5371 10.0677C17.3496 10.6085 17.2726 11.1802 17.3104 11.7502C17.9026 11.7562 18.4885 11.6302 19.0239 11.3816C19.5594 11.1331 20.0303 10.7686 20.4014 10.3154ZM38.9016 24.4373H34.5548L33.511 27.4636H31.6697L35.787 16.2672H37.6999L41.8171 27.4636H39.9446L38.9016 24.4373ZM35.005 23.0408H38.4505L36.752 18.1295H36.7044L35.005 23.0408ZM50.7088 23.3825C50.7088 25.9192 49.3259 27.5489 47.2391 27.5489C46.7105 27.5761 46.1848 27.4565 45.7221 27.2039C45.2595 26.9514 44.8786 26.576 44.6232 26.1208H44.5837V30.164H42.877V19.3005H44.529V20.6583H44.5604C44.8276 20.2052 45.2149 19.8318 45.681 19.5777C46.1472 19.3236 46.6748 19.1983 47.2077 19.2151C49.3178 19.2151 50.7088 20.8529 50.7088 23.3825ZM48.9546 23.3825C48.9546 21.7299 48.0848 20.6433 46.7576 20.6433C45.4535 20.6433 44.5765 21.7527 44.5765 23.3824C44.5765 25.0273 45.4535 26.1288 46.7576 26.1288C48.0848 26.1288 48.9546 25.0503 48.9546 23.3825ZM59.8602 23.3825C59.8602 25.9192 58.4769 27.5489 56.39 27.5489C55.8614 27.5761 55.3357 27.4565 54.873 27.2039C54.4104 26.9514 54.0295 26.576 53.7741 26.1208H53.7346V30.164H52.028V19.3005H53.6799V20.6583H53.7113C53.9785 20.2052 54.3657 19.8318 54.8319 19.5777C55.2981 19.3236 55.8257 19.1983 56.3586 19.2151C58.4688 19.2151 59.8602 20.8529 59.8602 23.3825ZM58.1056 23.3825C58.1056 21.7299 57.2357 20.6433 55.9085 20.6433C54.6044 20.6433 53.7274 21.7527 53.7274 23.3824C53.7274 25.0273 54.6044 26.1288 55.9085 26.1288C57.2357 26.1288 58.1056 25.0503 58.1056 23.3825ZM65.9073 24.344C66.0338 25.4543 67.1324 26.1833 68.6335 26.1833C70.072 26.1833 71.1069 25.4543 71.1069 24.4531C71.1069 23.584 70.4828 23.0637 69.0049 22.7071L67.527 22.3576C65.4329 21.861 64.4608 20.8995 64.4608 19.3392C64.4608 17.4074 66.1755 16.0805 68.6094 16.0805C71.02 16.0805 72.6719 17.4074 72.7275 19.3392H71.0047C70.9016 18.2219 69.9608 17.5474 68.5861 17.5474C67.2112 17.5474 66.2705 18.2298 66.2705 19.223C66.2705 20.0146 66.8714 20.4804 68.3412 20.8369L69.5976 21.1398C71.9374 21.6831 72.9086 22.6059 72.9086 24.2435C72.9086 26.3382 71.2101 27.6502 68.5071 27.6502C65.978 27.6502 64.2706 26.369 64.1603 24.3439L65.9073 24.344ZM76.5935 17.3688V19.3005H78.1746V20.6274H76.5935V25.1276C76.5935 25.8267 76.9101 26.1525 77.6052 26.1525C77.7929 26.1493 77.9802 26.1364 78.1665 26.1137V27.4328C77.8541 27.4901 77.5365 27.516 77.2187 27.5102C75.5354 27.5102 74.8789 26.8895 74.8789 25.3063V20.6274H73.67V19.3005H74.8789V17.3688H76.5935ZM79.0894 23.3825C79.0894 20.8141 80.63 19.2002 83.0326 19.2002C85.4432 19.2002 86.9767 20.8141 86.9767 23.3825C86.9767 25.9579 85.4512 27.5648 83.0325 27.5648C80.6148 27.5648 79.0894 25.9579 79.0894 23.3825ZM85.2378 23.3825C85.2378 21.6207 84.4154 20.5807 83.0325 20.5807C81.6497 20.5807 80.8274 21.6285 80.8274 23.3825C80.8274 25.1514 81.6497 26.1833 83.0325 26.1833C84.4154 26.1833 85.2378 25.1514 85.2378 23.3825ZM88.3837 19.3005H90.0114V20.6899H90.0509C90.161 20.256 90.42 19.8725 90.7842 19.6039C91.1484 19.3353 91.5957 19.1981 92.0508 19.2151C92.2475 19.2144 92.4436 19.2354 92.6355 19.2776V20.8449C92.3872 20.7704 92.1282 20.7362 91.8687 20.7437C91.6208 20.7338 91.3736 20.7767 91.1442 20.8695C90.9147 20.9622 90.7085 21.1026 90.5395 21.2811C90.3706 21.4595 90.243 21.6717 90.1654 21.9031C90.0879 22.1345 90.0623 22.3797 90.0904 22.6217V27.4636H88.3837V19.3005ZM100.504 25.066C100.274 26.5479 98.8045 27.5648 96.924 27.5648C94.5053 27.5648 93.004 25.9738 93.004 23.4212C93.004 20.8608 94.5134 19.2002 96.8523 19.2002C99.1525 19.2002 100.599 20.7516 100.599 23.2266V23.8007H94.7268V23.902C94.6997 24.2024 94.738 24.505 94.8392 24.7898C94.9404 25.0746 95.1021 25.335 95.3136 25.5537C95.5252 25.7724 95.7817 25.9444 96.0662 26.0582C96.3506 26.1721 96.6565 26.2253 96.9635 26.2142C97.3668 26.2513 97.7715 26.1596 98.1174 25.9527C98.4634 25.7458 98.732 25.4348 98.8835 25.066H100.504ZM94.7349 22.6297H98.8916C98.9069 22.3596 98.8652 22.0892 98.7691 21.8357C98.673 21.5821 98.5245 21.3508 98.333 21.1563C98.1415 20.9617 97.9111 20.8081 97.6563 20.7052C97.4015 20.6022 97.1278 20.552 96.8523 20.5578C96.5743 20.5562 96.2989 20.6086 96.0417 20.7121C95.7845 20.8155 95.5507 20.968 95.3539 21.1606C95.157 21.3532 95.001 21.5822 94.8947 21.8344C94.7885 22.0865 94.7342 22.3568 94.7349 22.6297ZM34.7916 7.83961C35.1494 7.81439 35.5084 7.86746 35.8428 7.99498C36.1771 8.1225 36.4785 8.3213 36.7252 8.57703C36.9718 8.83276 37.1576 9.13905 37.2691 9.47381C37.3805 9.80856 37.415 10.1634 37.3698 10.5128C37.3698 12.2315 36.4237 13.2195 34.7916 13.2195H32.8123V7.83952L34.7916 7.83961ZM33.6634 12.4586H34.6965C34.9522 12.4736 35.208 12.4325 35.4454 12.3381C35.6828 12.2438 35.8958 12.0987 36.0689 11.9133C36.242 11.728 36.3708 11.5071 36.446 11.2667C36.5212 11.0263 36.5408 10.7725 36.5035 10.5237C36.5381 10.276 36.5165 10.0237 36.4402 9.78508C36.3638 9.54646 36.2347 9.32736 36.062 9.1435C35.8893 8.95963 35.6773 8.81554 35.4413 8.72155C35.2052 8.62756 34.9509 8.58601 34.6965 8.59986H33.6634V12.4586ZM38.3312 11.1877C38.3052 10.9209 38.3363 10.6517 38.4225 10.3974C38.5086 10.1431 38.648 9.90922 38.8316 9.71087C39.0152 9.51253 39.239 9.35405 39.4887 9.24561C39.7383 9.13716 40.0083 9.08114 40.2813 9.08114C40.5543 9.08114 40.8243 9.13716 41.0739 9.24561C41.3235 9.35405 41.5473 9.51253 41.731 9.71087C41.9146 9.90922 42.0539 10.1431 42.1401 10.3974C42.2263 10.6517 42.2573 10.9209 42.2313 11.1877C42.2579 11.4548 42.2272 11.7244 42.1413 11.9792C42.0554 12.234 41.9162 12.4683 41.7325 12.6671C41.5488 12.8659 41.3248 13.0248 41.0749 13.1335C40.825 13.2422 40.5546 13.2984 40.2813 13.2984C40.0079 13.2984 39.7376 13.2422 39.4877 13.1335C39.2377 13.0248 39.0137 12.8659 38.8301 12.6671C38.6464 12.4683 38.5071 12.234 38.4212 11.9792C38.3353 11.7244 38.3047 11.4548 38.3312 11.1877ZM41.392 11.1877C41.392 10.3076 40.9893 9.79298 40.2827 9.79298C39.5733 9.79298 39.1743 10.3076 39.1743 11.1877C39.1743 12.0748 39.5734 12.5855 40.2827 12.5855C40.9893 12.5855 41.392 12.0713 41.392 11.1877ZM47.4158 13.2194H46.5691L45.7145 10.2293H45.65L44.799 13.2194H43.9604L42.8206 9.1594H43.6483L44.3891 12.2574H44.4501L45.3003 9.1594H46.0831L46.9333 12.2574H46.9979L47.735 9.1594H48.5511L47.4158 13.2194ZM49.5098 9.15949H50.2954V9.80443H50.3564C50.4598 9.57277 50.6343 9.37856 50.8555 9.2489C51.0767 9.11923 51.3336 9.06055 51.5904 9.08105C51.7916 9.06621 51.9936 9.096 52.1815 9.16821C52.3694 9.24043 52.5383 9.35323 52.6758 9.49825C52.8133 9.64327 52.9157 9.81679 52.9756 10.006C53.0355 10.1951 53.0512 10.3951 53.0217 10.5911V13.2193H52.2056V10.7923C52.2056 10.1399 51.9168 9.81543 51.3133 9.81543C51.1767 9.80919 51.0403 9.83202 50.9135 9.88236C50.7867 9.9327 50.6726 10.0094 50.5788 10.1071C50.485 10.2048 50.4138 10.3213 50.3702 10.4485C50.3265 10.5758 50.3114 10.7108 50.3259 10.8443V13.2194H49.5098V9.15949ZM54.3221 7.57453H55.1381V13.2194H54.3221V7.57453ZM56.2726 11.1877C56.2466 10.9209 56.2776 10.6516 56.3638 10.3973C56.45 10.1429 56.5894 9.90905 56.773 9.71067C56.9567 9.5123 57.1805 9.35381 57.4302 9.24535C57.6799 9.13689 57.9499 9.08086 58.2229 9.08086C58.4959 9.08086 58.7659 9.13689 59.0156 9.24535C59.2653 9.35381 59.4891 9.5123 59.6728 9.71067C59.8564 9.90905 59.9958 10.1429 60.082 10.3973C60.1682 10.6516 60.1992 10.9209 60.1732 11.1877C60.1997 11.4548 60.1689 11.7243 60.0829 11.979C59.9969 12.2338 59.8576 12.468 59.6739 12.6667C59.4903 12.8654 59.2663 13.0242 59.0164 13.1328C58.7665 13.2415 58.4962 13.2976 58.2229 13.2976C57.9496 13.2976 57.6793 13.2415 57.4294 13.1328C57.1795 13.0242 56.9555 12.8654 56.7719 12.6667C56.5882 12.468 56.4489 12.2338 56.3629 11.979C56.2769 11.7243 56.2461 11.4548 56.2726 11.1877ZM59.3333 11.1877C59.3333 10.3076 58.9306 9.79298 58.224 9.79298C57.5146 9.79298 57.1156 10.3076 57.1156 11.1877C57.1156 12.0748 57.5147 12.5855 58.224 12.5855C58.9306 12.5855 59.3333 12.0713 59.3333 11.1877ZM61.0323 12.0713C61.0323 11.3404 61.5865 10.9191 62.5703 10.8592L63.6904 10.7959V10.4454C63.6904 10.0166 63.4017 9.77449 62.8439 9.77449C62.3883 9.77449 62.0726 9.93868 61.982 10.2258H61.1919C61.2753 9.52835 61.9435 9.08114 62.8815 9.08114C63.9182 9.08114 64.5029 9.58786 64.5029 10.4454V13.2194H63.7173V12.6489H63.6528C63.5217 12.8535 63.3377 13.0204 63.1195 13.1324C62.9012 13.2444 62.6567 13.2975 62.4107 13.2863C62.2371 13.304 62.0617 13.2859 61.8957 13.2329C61.7297 13.18 61.5768 13.0935 61.447 12.9791C61.3171 12.8646 61.2131 12.7247 61.1417 12.5683C61.0703 12.412 61.033 12.2426 61.0323 12.0713ZM63.6904 11.7243V11.3849L62.6806 11.4483C62.1112 11.4857 61.8528 11.6759 61.8528 12.0338C61.8528 12.3992 62.1757 12.6119 62.6196 12.6119C62.7497 12.6248 62.8811 12.6119 63.006 12.574C63.1309 12.536 63.2468 12.4738 63.3467 12.391C63.4466 12.3082 63.5285 12.2065 63.5875 12.092C63.6466 11.9774 63.6816 11.8524 63.6904 11.7243ZM65.5755 11.1877C65.5755 9.90478 66.2472 9.09214 67.292 9.09214C67.5504 9.08045 67.8069 9.14121 68.0314 9.26735C68.256 9.39348 68.4394 9.57977 68.5601 9.80443H68.621V7.57444H69.4371V13.2193H68.6551V12.5778H68.5906C68.4605 12.801 68.2708 12.9849 68.0419 13.1098C67.813 13.2347 67.5537 13.2957 67.2921 13.2862C66.24 13.2862 65.5755 12.4736 65.5755 11.1877ZM66.4185 11.1877C66.4185 12.0488 66.832 12.567 67.5233 12.567C68.2111 12.567 68.6363 12.0414 68.6363 11.1911C68.6363 10.345 68.2067 9.81191 67.5233 9.81191C66.8364 9.81191 66.4185 10.3336 66.4185 11.1877ZM72.8136 11.1877C72.7876 10.9209 72.8186 10.6517 72.9048 10.3974C72.991 10.1431 73.1303 9.90922 73.3139 9.71087C73.4976 9.51253 73.7214 9.35405 73.971 9.24561C74.2206 9.13716 74.4906 9.08114 74.7636 9.08114C75.0366 9.08114 75.3066 9.13716 75.5562 9.24561C75.8059 9.35405 76.0297 9.51253 76.2133 9.71087C76.3969 9.90922 76.5362 10.1431 76.6224 10.3974C76.7086 10.6517 76.7397 10.9209 76.7137 11.1877C76.7402 11.4548 76.7096 11.7244 76.6237 11.9792C76.5378 12.234 76.3985 12.4683 76.2148 12.6671C76.0312 12.8659 75.8072 13.0248 75.5572 13.1335C75.3073 13.2422 75.037 13.2984 74.7636 13.2984C74.4902 13.2984 74.2199 13.2422 73.97 13.1335C73.72 13.0248 73.4961 12.8659 73.3124 12.6671C73.1287 12.4683 72.9895 12.234 72.9035 11.9792C72.8176 11.7244 72.787 11.4548 72.8136 11.1877ZM75.8743 11.1877C75.8743 10.3076 75.4716 9.79298 74.765 9.79298C74.0556 9.79298 73.6566 10.3076 73.6566 11.1877C73.6566 12.0748 74.0557 12.5855 74.765 12.5855C75.4716 12.5855 75.8743 12.0713 75.8743 11.1877ZM77.8087 9.15949H78.5943V9.80443H78.6553C78.7587 9.57277 78.9332 9.37856 79.1544 9.2489C79.3756 9.11923 79.6325 9.06055 79.8893 9.08105C80.0905 9.06621 80.2925 9.096 80.4804 9.16821C80.6683 9.24043 80.8372 9.35323 80.9747 9.49825C81.1122 9.64327 81.2146 9.81679 81.2745 10.006C81.3344 10.1951 81.3501 10.3951 81.3206 10.5911V13.2193H80.5045V10.7923C80.5045 10.1399 80.2157 9.81543 79.6122 9.81543C79.4756 9.80919 79.3392 9.83202 79.2124 9.88236C79.0856 9.9327 78.9715 10.0094 78.8777 10.1071C78.7839 10.2048 78.7127 10.3213 78.6691 10.4485C78.6254 10.5758 78.6103 10.7108 78.6248 10.8443V13.2194H77.8088L77.8087 9.15949ZM85.932 8.14868V9.17798H86.8279V9.85284H85.932V11.9405C85.932 12.3658 86.1104 12.552 86.5167 12.552C86.6206 12.5517 86.7245 12.5455 86.8278 12.5335V13.2009C86.6812 13.2267 86.5327 13.2404 86.3839 13.2419C85.4764 13.2419 85.1149 12.9284 85.1149 12.1457V9.85284H84.4585V9.17789H85.1149V8.14877L85.932 8.14868ZM87.9425 7.57453H88.7515V9.81191H88.816C88.9245 9.57809 89.1038 9.3828 89.3294 9.25264C89.555 9.12248 89.8161 9.06379 90.0769 9.08457C90.2771 9.07387 90.4772 9.10668 90.6629 9.18066C90.8487 9.25463 91.0155 9.36795 91.1516 9.51252C91.2876 9.6571 91.3894 9.82937 91.4498 10.017C91.5102 10.2047 91.5277 10.4032 91.501 10.5982V13.2194H90.6841V10.7959C90.6841 10.1473 90.3764 9.81894 89.7998 9.81894C89.6596 9.80766 89.5185 9.82659 89.3865 9.87443C89.2544 9.92227 89.1346 9.99785 89.0355 10.0959C88.9363 10.1939 88.8601 10.3121 88.8123 10.442C88.7645 10.572 88.7462 10.7106 88.7586 10.8482V13.2194H87.9425V7.57453ZM96.2595 12.1231C96.1486 12.4942 95.9084 12.8152 95.5808 13.0299C95.2533 13.2447 94.8592 13.3395 94.4677 13.2978C94.1952 13.3048 93.9245 13.2536 93.6742 13.1476C93.424 13.0417 93.2002 12.8835 93.0185 12.6841C92.8367 12.4848 92.7014 12.2489 92.6218 11.993C92.5421 11.7371 92.5202 11.4673 92.5575 11.2022C92.5212 10.9363 92.5435 10.6659 92.6229 10.4092C92.7023 10.1525 92.837 9.91561 93.0178 9.71447C93.1986 9.51333 93.4213 9.35268 93.6708 9.2434C93.9203 9.13412 94.1909 9.07875 94.4641 9.08105C95.6146 9.08105 96.3088 9.85284 96.3088 11.1277V11.4073H93.3888V11.4522C93.376 11.6012 93.3951 11.7512 93.4448 11.8925C93.4945 12.0338 93.5737 12.1634 93.6774 12.2729C93.7811 12.3824 93.907 12.4695 94.0469 12.5284C94.1869 12.5874 94.3378 12.617 94.4901 12.6153C94.6853 12.6383 94.8831 12.6038 95.0582 12.5162C95.2334 12.4286 95.3781 12.2917 95.4739 12.1231H96.2595ZM93.3888 10.8148H95.4774C95.4877 10.6785 95.4689 10.5417 95.4221 10.413C95.3753 10.2843 95.3016 10.1667 95.2057 10.0676C95.1099 9.96857 94.994 9.8903 94.8655 9.83785C94.737 9.7854 94.5987 9.75992 94.4596 9.76304C94.3184 9.7613 94.1784 9.78731 94.0476 9.83956C93.9169 9.8918 93.7981 9.96921 93.6983 10.0672C93.5985 10.1653 93.5197 10.2819 93.4666 10.4103C93.4134 10.5387 93.387 10.6762 93.3888 10.8148Z" fill="black"/>
</g>
<defs>
<clipPath id="clip0_960_3661">
<rect width="110" height="36" fill="white"/>
</clipPath>
</defs>
</svg>
