<svg width="20" height="20" viewBox="0 0 20 20" fill="none" xmlns="http://www.w3.org/2000/svg">
<path d="M16.9141 9.41406H10.5859V3.08594C10.5859 2.76232 10.3236 2.5 10 2.5C9.67639 2.5 9.41406 2.76232 9.41406 3.08594V9.41406H3.08594C2.76232 9.41406 2.5 9.67639 2.5 10C2.5 10.3236 2.76232 10.5859 3.08594 10.5859H9.41406V16.9141C9.41406 17.2377 9.67639 17.5 10 17.5C10.3236 17.5 10.5859 17.2377 10.5859 16.9141V10.5859H16.9141C17.2377 10.5859 17.5 10.3236 17.5 10C17.5 9.67639 17.2377 9.41406 16.9141 9.41406Z" fill="#9C8D7F"/>
</svg>
