<svg width="18" height="18" viewBox="0 0 18 18" fill="none" xmlns="http://www.w3.org/2000/svg">
<g id="Layer_1">
<g id="Group">
<path id="Vector" d="M15.6074 0.350098H5.06117C3.93842 0.350098 3.02504 1.26622 3.02504 2.39235V3.02466H2.38598C1.26323 3.02466 0.349854 3.94079 0.349854 5.06754V15.6077C0.349854 16.7338 1.26323 17.65 2.38598 17.65H12.9325C14.0589 17.65 14.9751 16.7338 14.9751 15.6077V14.9754H15.6074C16.7338 14.9754 17.6503 14.0593 17.6503 12.9325V2.39229C17.6502 1.26622 16.7338 0.350098 15.6074 0.350098ZM13.7251 15.6077C13.7251 16.0447 13.3696 16.3999 12.9325 16.3999H2.38598C1.9526 16.3999 1.59985 16.0447 1.59985 15.6077V5.06747C1.59985 4.63047 1.95267 4.2746 2.38598 4.2746H3.65004H12.9325C13.3695 4.2746 13.7251 4.63041 13.7251 5.06747V14.3503V15.6077ZM16.4002 12.9325C16.4002 13.3695 16.0447 13.7253 15.6074 13.7253H14.975V5.06747C14.975 3.94079 14.0589 3.0246 12.9325 3.0246H4.27498V2.39229C4.27498 1.95529 4.62779 1.60004 5.0611 1.60004H15.6074C16.0447 1.60004 16.4002 1.95529 16.4002 2.39229V12.9325Z" fill="#9C8D7F"/>
</g>
</g>
</svg>
