<svg width="18" height="18" viewBox="0 0 18 18" fill="none" xmlns="http://www.w3.org/2000/svg">
<g id="Icon">
<path id="Vector" fill-rule="evenodd" clip-rule="evenodd" d="M17.4159 4.35742C15.6442 6.12908 11.4859 10.2866 10.4717 11.2974C10.2525 11.5157 9.99171 11.6882 9.71171 11.8007C8.89838 12.1382 6.91421 12.9166 6.33088 12.9557C5.98338 12.9791 5.64255 12.8507 5.39588 12.6041C5.14921 12.3574 5.02088 12.0166 5.04421 11.6691C5.08338 11.0857 5.86171 9.10325 6.19338 8.29325C6.30921 8.00575 6.48171 7.74492 6.70088 7.52658L13.6425 0.584082C13.9784 0.248249 14.435 0.059082 14.91 0.059082C15.385 0.059082 15.8417 0.248249 16.1775 0.584082L17.4159 1.82242C17.7517 2.15825 17.9409 2.61492 17.9409 3.08992C17.9409 3.56492 17.7517 4.02158 17.4159 4.35742ZM6.29671 11.7032C6.86671 11.6316 8.53255 10.9366 9.23255 10.6457C9.23505 10.6449 9.23754 10.6441 9.23921 10.6432C9.37004 10.5907 9.48838 10.5124 9.58754 10.4132L9.58838 10.4124C10.6042 9.40158 14.7609 5.24492 16.5317 3.47325C16.6334 3.37158 16.6909 3.23408 16.6909 3.08992C16.6909 2.94575 16.6334 2.80825 16.5317 2.70658L15.2934 1.46825C15.1917 1.36658 15.0542 1.30908 14.91 1.30908C14.7659 1.30908 14.6284 1.36658 14.5267 1.46825L7.58421 8.41075C7.48421 8.50992 7.40588 8.62908 7.35338 8.75992L7.35171 8.76325C7.06421 9.46492 6.36838 11.1324 6.29671 11.7032Z" fill="#9C8D7F"/>
<path id="Vector_2" fill-rule="evenodd" clip-rule="evenodd" d="M15.765 5.12416C16.0083 5.36832 16.0083 5.76416 15.765 6.00832C15.5208 6.25249 15.125 6.25249 14.8808 6.00832L11.9917 3.11916C11.7475 2.87499 11.7475 2.47916 11.9917 2.23499C12.2358 1.99166 12.6317 1.99166 12.8758 2.23499L15.765 5.12416Z" fill="#9C8D7F"/>
<path id="Vector_3" fill-rule="evenodd" clip-rule="evenodd" d="M10.6642 10.2249C10.9083 10.4682 10.9083 10.8649 10.6642 11.1082C10.4208 11.3524 10.0242 11.3524 9.78085 11.1082L6.89168 8.21905C6.64752 7.97571 6.64752 7.57905 6.89168 7.33571C7.13502 7.09155 7.53168 7.09155 7.77502 7.33571L10.6642 10.2249Z" fill="#9C8D7F"/>
<path id="Vector_4" fill-rule="evenodd" clip-rule="evenodd" d="M6.08335 1.70825C6.42835 1.70825 6.70835 1.98825 6.70835 2.33325C6.70835 2.67825 6.42835 2.95825 6.08335 2.95825H3.16669C2.13085 2.95825 1.29169 3.79742 1.29169 4.83325V14.8333C1.29169 15.3308 1.48919 15.8074 1.84085 16.1591C2.19252 16.5108 2.66919 16.7083 3.16669 16.7083H14C14.4975 16.7083 14.9742 16.5108 15.3259 16.1591C15.6775 15.8074 15.875 15.3308 15.875 14.8333V11.9166C15.875 11.5716 16.155 11.2916 16.5 11.2916C16.845 11.2916 17.125 11.5716 17.125 11.9166V14.8333C17.125 15.6624 16.7959 16.4566 16.21 17.0433C15.6234 17.6291 14.8292 17.9583 14 17.9583H3.16669C2.33752 17.9583 1.54335 17.6291 0.956687 17.0433C0.370854 16.4566 0.041687 15.6624 0.041687 14.8333V4.83325C0.041687 3.10742 1.44085 1.70825 3.16669 1.70825H6.08335Z" fill="#9C8D7F"/>
</g>
</svg>
