<svg width="18" height="18" viewBox="0 0 18 18" fill="none" xmlns="http://www.w3.org/2000/svg">
<g id="Group 95">
<g id="Group">
<g id="Group_2">
<path id="Vector" d="M15.3639 2.63602C13.6641 0.936176 11.404 0 9 0C6.59598 0 4.33589 0.936176 2.63602 2.63602C0.936176 4.33589 0 6.59598 0 9C0 11.404 0.936176 13.6641 2.63602 15.364C4.33589 17.0638 6.59598 18 9 18C11.404 18 13.6641 17.0638 15.3639 15.364C17.0638 13.6641 18 11.404 18 9C18 6.59602 17.0638 4.33589 15.3639 2.63602ZM9 16.9453C4.61893 16.9453 1.05469 13.3811 1.05469 9C1.05469 4.61893 4.61893 1.05469 9 1.05469C13.3811 1.05469 16.9453 4.61893 16.9453 9C16.9453 13.3811 13.3811 16.9453 9 16.9453Z" fill="#FE6250"/>
</g>
</g>
<g id="Group_3">
<g id="Group_4">
<path id="Vector_2" d="M10.6945 4.84183C10.4032 4.84183 10.1671 5.07794 10.1671 5.36917V12.6309C10.1671 12.9222 10.4032 13.1583 10.6945 13.1583C10.9857 13.1583 11.2218 12.9222 11.2218 12.6309V5.36917C11.2218 5.07794 10.9857 4.84183 10.6945 4.84183Z" fill="#FE6250"/>
</g>
</g>
<g id="Group_5">
<g id="Group_6">
<path id="Vector_3" d="M7.30542 4.84183C7.01419 4.84183 6.77808 5.07794 6.77808 5.36917V12.6309C6.77808 12.9222 7.01419 13.1583 7.30542 13.1583C7.59665 13.1583 7.83276 12.9222 7.83276 12.6309V5.36917C7.83276 5.07794 7.59665 4.84183 7.30542 4.84183Z" fill="#FE6250"/>
</g>
</g>
</g>
</svg>
